 http://www.silvertorrent.org
 
http://www.shotpix.com/images/08096634903738710469.png
 
http://img820.imageshack.us/img820/2291/frankiet.jpg
 
http://silvertorrent.org/index.php?page=torrent-details&id=cce49cab583cb7c4cad47243e4b53b83359e8796

Frankie Go Boom 2012 WEB-HDRip XVID AC3 HQ Hive-CM8 (SilverTorrent)


Source: 1080p BS - thx

Video.: 720x304 @bitrate 1700 2pass
Audio.: English AC3 5.1 @384
Subs..: Yes, in srt file
Sample: Yes, included


IMDb..: http://www.imdb.com/title/tt1772271/


ENCODE
quality was nice, just the usual, brightness, sharpness, rgb
enjoy


General
Complete name                  : Frankie.Go.Boom.2012.WEB-HDRip.XVID.AC3.HQ.Hive-CM8.avi
Format                         : AVI
Format/Info                    : Audio Video Interleave
File size                      : 1.30 GiB
Duration                       : 1h 28mn
Overall bit rate               : 2 093 Kbps
Writing application            : Nandub v1.0rc2
Writing library                : Nandub build 1853/release

Video
ID                             : 0
Format                         : MPEG-4 Visual
Format profile                 : Advanced Simple@L5
Format settings, BVOP          : 2
Format settings, QPel          : Yes
Format settings, GMC           : No warppoints
Format settings, Matrix        : Default (H.263)
Muxing mode                    : Packed bitstream
Codec ID                       : XVID
Codec ID/Hint                  : XviD
Duration                       : 1h 28mn
Bit rate                       : 1 700 Kbps
Width                          : 720 pixels
Height                         : 304 pixels
Display aspect ratio           : 2.35:1
Frame rate                     : 23.976 fps
Color space                    : YUV
Chroma subsampling             : 4:2:0
Bit depth                      : 8 bits
Scan type                      : Progressive
Compression mode               : Lossy
Bits/(Pixel*Frame)             : 0.324
Stream size                    : 1.05 GiB (81%)
Writing library                : XviD 1.2.1 (UTC 2008-12-04)

Audio
ID                             : 1
Format                         : AC-3
Format/Info                    : Audio Coding 3
Mode extension                 : CM (complete main)
Format settings, Endianness    : Big
Codec ID                       : 2000
Duration                       : 1h 28mn
Bit rate mode                  : Constant
Bit rate                       : 384 Kbps
Channel(s)                     : 6 channels
Channel positions              : Front: L C R, Side: L R, LFE
Sampling rate                  : 48.0 KHz
Bit depth                      : 16 bits
Compression mode               : Lossy
Stream size                    : 244 MiB (18%)
Alignment                      : Split accross interleaves
Interleave, duration           : 42 ms (1.00 video frame)
Interleave, preload duration   : 500 ms


PLOT
Frank Bartlett has been tortured, embarrassed, and humiliated by his brother Bruce,
usually on film, his entire life. Now that Bruce is finally off drugs and has
turned his life around, things should be different. They are not.


CAST
Charlie Hunnam   ...     Frankie
Chris O'Dowd     ...     Bruce
Lizzy Caplan     ...     Lassie
 
http://silvertorrent.org/index.php?page=torrent-details&id=cce49cab583cb7c4cad47243e4b53b83359e8796
 
http://img853.imageshack.us/img853/624/frafra.png 
http://img10.imageshack.us/img10/3050/frafrafra.png 
http://img9.imageshack.us/img9/3099/frafrafrafra.png 
http://img248.imageshack.us/img248/1944/frah.png
 
http://silvertorrent.org/index.php?page=torrent-details&id=cce49cab583cb7c4cad47243e4b53b83359e8796